<svg width="24" height="24" viewBox="0 0 24 24" fill="none" xmlns="http://www.w3.org/2000/svg">
<path d="M21.3333 19.3333H2.66667C2.48986 19.3333 2.32029 19.2631 2.19526 19.1381C2.07024 19.013 2 18.8435 2 18.6667C2 18.4899 2.07024 18.3203 2.19526 18.1953C2.32029 18.0702 2.48986 18 2.66667 18H21.3333C21.5101 18 21.6797 18.0702 21.8047 18.1953C21.9298 18.3203 22 18.4899 22 18.6667C22 18.8435 21.9298 19.013 21.8047 19.1381C21.6797 19.2631 21.5101 19.3333 21.3333 19.3333Z" fill="black"/>
<path d="M21.3333 12.6667H2.66667C2.48986 12.6667 2.32029 12.5964 2.19526 12.4714C2.07024 12.3464 2 12.1768 2 12C2 11.8232 2.07024 11.6536 2.19526 11.5286C2.32029 11.4036 2.48986 11.3333 2.66667 11.3333H21.3333C21.5101 11.3333 21.6797 11.4036 21.8047 11.5286C21.9298 11.6536 22 11.8232 22 12C22 12.1768 21.9298 12.3464 21.8047 12.4714C21.6797 12.5964 21.5101 12.6667 21.3333 12.6667Z" fill="black"/>
<path d="M21.3333 5.99999H2.66667C2.48986 5.99999 2.32029 5.92975 2.19526 5.80473C2.07024 5.6797 2 5.51013 2 5.33332C2 5.15651 2.07024 4.98694 2.19526 4.86192C2.32029 4.73689 2.48986 4.66666 2.66667 4.66666H21.3333C21.5101 4.66666 21.6797 4.73689 21.8047 4.86192C21.9298 4.98694 22 5.15651 22 5.33332C22 5.51013 21.9298 5.6797 21.8047 5.80473C21.6797 5.92975 21.5101 5.99999 21.3333 5.99999Z" fill="black"/>
</svg>
